<svg xmlns="http://www.w3.org/2000/svg" xmlns:xlink="http://www.w3.org/1999/xlink" version="1.1" x="0px" y="0px" viewBox="0 0 48 48" style="enable-background:new 0 0 48 48;max-width:100%" xml:space="preserve" height="100%"><style type="text/css" style="" fill="currentColor">
	.st0{fill:#010101;}
</style><g style="" fill="currentColor"><polygon points="44.5,44.7 44.5,41.4 3.5,41.4 3.5,44.7 0,44.7 0,48 48,48 48,44.7  " style="" fill="currentColor"></polygon><path d="M2.6,17h0.8v3.3h41.1V17h0.8c2.7,0,3.7-3.6,1.3-4.9L25.3,0.3c-0.8-0.4-1.7-0.4-2.5,0L1.4,12.1C-1,13.4-0.1,17,2.6,17z    M24,4.2c2.4,0,4.3,1.9,4.3,4.3s-1.9,4.3-4.3,4.3s-4.3-1.9-4.3-4.3S21.6,4.2,24,4.2z" style="" fill="currentColor"></path><polygon points="13.4,21.3 6.7,21.3 8.3,23.5 8.3,38.3 6.7,40.4 13.4,40.4 11.8,38.3 11.8,23.5  " style="" fill="currentColor"></polygon><polygon points="27.3,21.3 20.7,21.3 22.2,23.5 22.2,38.3 20.7,40.4 27.3,40.4 25.8,38.3 25.8,23.5  " style="" fill="currentColor"></polygon><polygon points="41.3,21.3 34.6,21.3 36.2,23.5 36.2,38.3 34.6,40.4 41.3,40.4 39.7,38.3 39.7,23.5  " style="" fill="currentColor"></polygon></g></svg>