<svg xmlns="http://www.w3.org/2000/svg" xmlns:xlink="http://www.w3.org/1999/xlink" version="1.1" x="0px" y="0px" viewBox="0 0 48 48" style="enable-background:new 0 0 48 48;max-width:100%" xml:space="preserve" height="100%"><style type="text/css" style="" fill="currentColor">
	.st0{fill:#010101;}
</style><g style="" fill="currentColor"><path d="M13,9.4C13,4.2,10.1,0,6.5,0S0,4.2,0,9.4c0,4.5,2.2,8.2,5.1,9.2v9.4C4.4,28.4,4,29.2,4,30v15.5C4,46.9,5.1,48,6.5,48   C7.9,48,9,46.9,9,45.5V30c0-0.9-0.4-1.6-1.1-2.1v-9.4C10.8,17.6,13,13.9,13,9.4z" style="" fill="currentColor"></path><path d="M46.7,0c-0.7,0-1.3,0.6-1.3,1.3v9.3c0,0.7-0.6,1.2-1.2,1.2c-0.7,0-1.2-0.6-1.2-1.2V1.3c0-0.7-0.6-1.3-1.3-1.3h-0.1   C40.6,0,40,0.6,40,1.3v9.3c0,0.7-0.6,1.2-1.2,1.2c-0.7,0-1.2-0.6-1.2-1.2V1.3C37.6,0.6,37,0,36.2,0h0c-0.7,0-1.3,0.6-1.3,1.3v10.7   c0,3.2,2.2,6,5.2,6.7v9.2c-0.7,0.4-1.1,1.2-1.1,2.1v15.5c0,1.4,1.1,2.5,2.5,2.5c1.4,0,2.5-1.1,2.5-2.5V30c0-0.9-0.4-1.6-1.1-2.1   v-9.2c2.9-0.6,5.2-3.3,5.2-6.4v-11C48,0.6,47.4,0,46.7,0z" style="" fill="currentColor"></path><path d="M24,15.6c-4.6,0-8.4,3.8-8.4,8.4s3.8,8.4,8.4,8.4s8.4-3.8,8.4-8.4S28.6,15.6,24,15.6z" style="" fill="currentColor"></path><path d="M24,10.6c-7.4,0-13.4,6-13.4,13.4s6,13.4,13.4,13.4s13.4-6,13.4-13.4S31.4,10.6,24,10.6z M24,34.4   c-5.7,0-10.4-4.7-10.4-10.4S18.3,13.6,24,13.6S34.4,18.3,34.4,24S29.7,34.4,24,34.4z" style="" fill="currentColor"></path></g></svg>