<?xml version="1.0" encoding="UTF-8"?>
<svg width="831px" height="149px" viewBox="0 0 831 149" version="1.1" xmlns="http://www.w3.org/2000/svg" xmlns:xlink="http://www.w3.org/1999/xlink">
    <!-- Generator: Sketch 58 (84663) - https://sketch.com -->
    <title>logo</title>
    <desc>Created with Sketch.</desc>
    <defs>
        <path d="M70.11,100.0285 C71.0120045,100.0285 71.7909967,100.376997 72.447,101.074 L78.966,108.1465 C75.357982,112.615522 70.9197763,116.038988 65.65125,118.417 C60.3827237,120.795012 54.0585369,121.984 46.6785,121.984 C40.077467,121.984 34.1427763,120.856511 28.87425,118.6015 C23.6057237,116.346489 19.1060187,113.21002 15.375,109.192 C11.6439813,105.17398 8.78425994,100.377028 6.79575,94.801 C4.80724006,89.2249721 3.813,83.136533 3.813,76.5355 C3.813,69.8524666 4.91998893,63.7332778 7.134,58.17775 C9.34801107,52.6222222 12.4639799,47.8355201 16.482,43.8175 C20.5000201,39.7994799 25.307222,36.6732612 30.90375,34.43875 C36.500278,32.2042388 42.6809662,31.087 49.446,31.087 C56.047033,31.087 61.8177253,32.1427394 66.75825,34.25425 C71.6987747,36.3657606 75.9319824,39.1639826 79.458,42.649 L73.923,50.3365 C73.5949984,50.8285025 73.1747526,51.2589982 72.66225,51.628 C72.1497474,51.9970018 71.4425045,52.1815 70.5405,52.1815 C69.676079,52.1815 68.7944444,51.8714406 67.8955739,51.2513133 L67.65,51.0745 C66.6659951,50.3364963 65.4155076,49.5370043 63.8985,48.676 C62.3814924,47.8149957 60.4647616,47.0155037 58.14825,46.2775 C55.8317384,45.5394963 52.8900178,45.1705 49.323,45.1705 C45.1409791,45.1705 41.2972675,45.8982427 37.79175,47.35375 C34.2862325,48.8092573 31.2727626,50.8899865 28.75125,53.596 C26.2297374,56.3020135 24.2617571,59.5922306 22.84725,63.46675 C21.4327429,67.3412694 20.7255,71.6974758 20.7255,76.5355 C20.7255,81.537525 21.4327429,85.9859805 22.84725,89.881 C24.2617571,93.7760195 26.1784879,97.0559867 28.5975,99.721 C31.0165121,102.386013 33.8659836,104.425743 37.146,105.84025 C40.4260164,107.254757 43.9519811,107.962 47.724,107.962 C49.9790113,107.962 52.0187409,107.839001 53.84325,107.593 C55.6677591,107.346999 57.3487423,106.957503 58.88625,106.4245 C60.4237577,105.891497 61.8792431,105.204754 63.25275,104.36425 C64.6262569,103.523746 65.9894932,102.488506 67.3425,101.2585 C67.7525021,100.889498 68.1829977,100.592251 68.634,100.36675 C69.0850023,100.141249 69.5769973,100.0285 70.11,100.0285 Z M110.085,121 L93.48,121 L93.48,32.071 L110.085,32.071 L110.085,121 Z M192.741,32.071 L192.741,45.6625 L165.9885,45.6625 L165.9885,121 L149.445,121 L149.445,45.6625 L122.5695,45.6625 L122.5695,32.071 L192.741,32.071 Z M242.802,86.437 L242.802,121 L226.2585,121 L226.2585,86.437 L193.848,32.071 L208.4235,32.071 C209.858507,32.071 210.996246,32.4194965 211.83675,33.1165 C212.677254,33.8135035 213.384497,34.6949947 213.9585,35.761 L230.256,65.4655 C231.199005,67.2285088 232.018997,68.8992421 232.716,70.47775 C233.413003,72.0562579 234.048497,73.6039924 234.6225,75.121 C235.155503,73.5629922 235.760247,71.9947579 236.43675,70.41625 C237.02869,69.0350556 237.722642,67.5989463 238.51862,66.1078889 L255.0405,35.761 C255.491502,34.8589955 256.167995,34.0185039 257.07,33.2395 C257.972005,32.4604961 259.119993,32.071 260.514,32.071 L275.151,32.071 L242.802,86.437 Z M319.677,108.823 C323.408019,108.823 326.657236,108.484753 329.42475,107.80825 C332.192264,107.131747 334.826487,106.199006 337.3275,105.01 L337.3275,88.8355 L326.196,88.8355 C325.129995,88.8355 324.289503,88.538253 323.6745,87.94375 C323.059497,87.349247 322.752,86.6215043 322.752,85.7605 L322.752,76.4125 L352.3335,76.4125 L352.3335,112.39 C350.078489,114.030008 347.731262,115.454744 345.29175,116.66425 C342.852238,117.873756 340.248764,118.867996 337.48125,119.647 C334.713736,120.426004 331.751516,121.010248 328.5945,121.39975 C325.437484,121.789252 322.034518,121.984 318.3855,121.984 C311.907468,121.984 305.942027,120.856511 300.489,118.6015 C295.035973,116.346489 290.32102,113.21002 286.344,109.192 C282.36698,105.17398 279.261261,100.377028 277.02675,94.801 C274.792239,89.2249721 273.675,83.136533 273.675,76.5355 C273.675,69.8524666 274.761489,63.7230279 276.9345,58.147 C279.107511,52.5709721 282.19273,47.7740201 286.19025,43.756 C290.18777,39.7379799 295.035972,36.6220111 300.735,34.408 C306.434028,32.1939889 312.829965,31.087 319.923,31.087 C327.180036,31.087 333.463223,32.1632392 338.77275,34.31575 C344.082277,36.4682608 348.581982,39.2664828 352.272,42.7105 L347.475,50.2135 C346.531995,51.7305076 345.281508,52.489 343.7235,52.489 C342.739495,52.489 341.735005,52.1610033 340.71,51.505 C339.397993,50.7259961 338.055257,49.9470039 336.68175,49.168 C335.308243,48.3889961 333.791258,47.7125029 332.13075,47.1385 C330.470242,46.5644971 328.60476,46.0930018 326.53425,45.724 C324.46374,45.3549982 322.075514,45.1705 319.3695,45.1705 C314.982478,45.1705 311.015768,45.9084926 307.46925,47.3845 C303.922732,48.8605074 300.899013,50.9719863 298.398,53.719 C295.896987,56.4660137 293.970007,59.7664807 292.617,63.6205 C291.263993,67.4745193 290.5875,71.7794762 290.5875,76.5355 C290.5875,81.6605256 291.304993,86.22173 292.74,90.21925 C294.175,94.21677 296.183987,97.5889863 298.767,100.336 C301.350013,103.083014 304.424982,105.184243 307.992,106.63975 C311.559018,108.095257 315.453979,108.823 319.677,108.823 Z M403.563,107.6545 C406.761016,107.6545 409.620737,107.121505 412.14225,106.0555 C414.663763,104.989495 416.795741,103.49301 418.53825,101.566 C420.280759,99.6389904 421.613245,97.3020137 422.53575,94.555 C423.458255,91.8079863 423.9195,88.733017 423.9195,85.33 L423.9195,32.071 L440.463,32.071 L440.463,85.33 C440.463,90.6190264 439.612259,95.5082276 437.91075,99.99775 C436.209241,104.487272 433.759516,108.361734 430.5615,111.62125 C427.363484,114.880766 423.489023,117.422741 418.938,119.24725 C414.386977,121.071759 409.262028,121.984 403.563,121.984 C397.863972,121.984 392.739023,121.071759 388.188,119.24725 C383.636977,117.422741 379.772766,114.880766 376.59525,111.62125 C373.417734,108.361734 370.978259,104.487272 369.27675,99.99775 C367.575241,95.5082276 366.7245,90.6190264 366.7245,85.33 L366.7245,32.071 L383.268,32.071 L383.268,85.2685 C383.268,88.671517 383.729245,91.7464863 384.65175,94.4935 C385.574255,97.2405137 386.896491,99.5877403 388.6185,101.53525 C390.340509,103.48276 392.462237,104.989495 394.98375,106.0555 C397.505263,107.121505 400.364984,107.6545 403.563,107.6545 Z M475.9485,121 L459.3435,121 L459.3435,32.071 L475.9485,32.071 L475.9485,121 Z M574.902,76.5355 C574.902,83.0545326 573.815511,89.0404727 571.6425,94.4935 C569.469489,99.9465273 566.41502,104.64098 562.479,108.577 C558.54298,112.51302 553.807528,115.567489 548.2725,117.7405 C542.737472,119.913511 536.608034,121 529.884,121 L495.936,121 L495.936,32.071 L529.884,32.071 C536.608034,32.071 542.737472,33.167739 548.2725,35.36125 C553.807528,37.554761 558.54298,40.6092304 562.479,44.52475 C566.41502,48.4402696 569.469489,53.1244727 571.6425,58.5775 C573.815511,64.0305273 574.902,70.0164674 574.902,76.5355 Z M557.9895,76.5355 C557.9895,71.6564756 557.333507,67.2797694 556.0215,63.40525 C554.709493,59.5307306 552.844012,56.2507634 550.425,53.56525 C548.005988,50.8797366 545.064267,48.8195072 541.59975,47.3845 C538.135233,45.9494928 534.230022,45.232 529.884,45.232 L512.6025,45.232 L512.6025,107.839 L529.884,107.839 C534.230022,107.839 538.135233,107.121507 541.59975,105.6865 C545.064267,104.251493 548.005988,102.191263 550.425,99.50575 C552.844012,96.8202366 554.709493,93.5402694 556.0215,89.66575 C557.333507,85.7912306 557.9895,81.4145244 557.9895,76.5355 Z M643.9665,32.071 L643.9665,45.232 L604.545,45.232 L604.545,69.8935 L635.6025,69.8935 L635.6025,82.624 L604.545,82.624 L604.545,107.7775 L643.9665,107.7775 L643.9665,121 L587.8785,121 L587.8785,32.071 L643.9665,32.071 Z" id="path-1"></path>
    </defs>
    <g id="Page-1" stroke="none" stroke-width="1" fill="none" fill-rule="evenodd">
        <g id="logo" transform="translate(5.000000, -2.000000)">
            <g id="Group-2" transform="translate(182.000000, 0.000000)" fill-rule="nonzero">
                <g id="CITYGUIDE">
                    <g>
                        <use fill="#000000" xlink:href="#path-1"></use>
                        <use fill="#FFFFFF" xlink:href="#path-1"></use>
                    </g>
                </g>
            </g>
            <g id="Group-3" transform="translate(0.000000, 7.000000)">
                <g id="buildings" transform="translate(11.000000, 25.000000)" fill="#FC4501" fill-rule="nonzero">
                    <path d="M110.632812,109.703125 L110.632812,43.387535 L73.4453125,24.6766663 L73.4453125,18.3613281 L64.1484375,18.3613281 L64.1484375,9.06445312 L45.5546875,9.06445312 L45.5546875,0 L36.2578125,0 L36.2578125,9.06445312 L17.6640625,9.06445312 L17.6640625,18.3613281 L8.3671875,18.3613281 L8.3671875,109.703125 L0,109.703125 L0,119 L119,119 L119,109.703125 L110.632812,109.703125 Z M102,48.1040772 L102,109 L74,109 L74,34 L102,48.1040772 Z M18,28.2620865 L27,28.2620865 L27,19 L54,19 L54,28.2620865 L63,28.2620865 L63,110 L18,110 L18,28.2620865 Z M26,36 L35,36 L35,45 L26,45 L26,36 Z M45,36 L54,36 L54,45 L45,45 L45,36 Z M26,57 L35,57 L35,66 L26,66 L26,57 Z M45,57 L54,57 L54,66 L45,66 L45,57 Z M26,75 L35,75 L35,84 L26,84 L26,75 Z M45,75 L54,75 L54,84 L45,84 L45,75 Z M26,93 L35,93 L35,102 L26,102 L26,93 Z M45,93 L54,93 L54,102 L45,102 L45,93 Z M93,66 L84,66 L84,57 L93,57 L93,66 Z M93,84 L84,84 L84,75 L93,75 L93,84 Z M84,102 L84,93 L93,93 L93,102 L84,102 Z" id="Shape"></path>
                </g>
                <rect id="Rectangle" stroke="#FC4501" stroke-width="10" x="0" y="0" width="139" height="139"></rect>
            </g>
        </g>
    </g>
</svg>